HIERARCHY
ROOT Hips
{
	OFFSET 0.000000 0.000000 0.000000 
	CHANNELS 6 Xposition Yposition Zposition Zrotation Yrotation Xrotation
	JOINT LeftUpLeg
	{
		OFFSET 1.363060 -1.794630 0.839290 
		CHANNELS 3 Zrotation Yrotation Xrotation
		JOINT LeftLeg
		{
			OFFSET 2.448110 -6.726130 0.000000 
			CHANNELS 3 Zrotation Yrotation Xrotation
			JOINT LeftFoot
			{
				OFFSET 2.562200 -7.039590 0.000000 
				CHANNELS 3 Zrotation Yrotation Xrotation
				JOINT LeftToeBase
				{
					OFFSET 0.157640 -0.433110 2.322550 
					CHANNELS 3 Zrotation Yrotation Xrotation
					End Site
					{
						OFFSET 0.000000 0.000000 0.000000 
					}
				}
			}
		}
	}
	JOINT RightUpLeg
	{
		OFFSET -1.305520 -1.794630 0.839290 
		CHANNELS 3 Zrotation Yrotation Xrotation
		JOINT RightLeg
		{
			OFFSET -2.542530 -6.985550 0.000000 
			CHANNELS 3 Zrotation Yrotation Xrotation
			JOINT RightFoot
			{
				OFFSET -2.568260 -7.056230 0.000000 
				CHANNELS 3 Zrotation Yrotation Xrotation
				JOINT RightToeBase
				{
					OFFSET -0.164730 -0.452590 2.363150 
					CHANNELS 3 Zrotation Yrotation Xrotation
					End Site
					{
						OFFSET 0.000000 0.000000 0.000000 
					}
				}
			}
		}
	}
	JOINT Spine
	{
		OFFSET 0.028270 2.035590 -0.193380 
		CHANNELS 3 Zrotation Yrotation Xrotation
		JOINT Spine1
		{
			OFFSET 0.056720 2.048850 -0.042750 
			CHANNELS 3 Zrotation Yrotation Xrotation
			JOINT Neck1
			{
				OFFSET -0.054170 1.746240 0.172020 
				CHANNELS 3 Zrotation Yrotation Xrotation
				JOINT Head
				{
					OFFSET 0.104070 1.761360 -0.123970 
					CHANNELS 3 Zrotation Yrotation Xrotation
					End Site
					{
						OFFSET 0.000000 0.000000 0.000000 
					}
				}
			}
			JOINT LeftArm
			{
				OFFSET 3.362410 1.200890 -0.311210 
				CHANNELS 3 Zrotation Yrotation Xrotation
				JOINT LeftForeArm
				{
					OFFSET 4.983000 -0.000000 -0.000000 
					CHANNELS 3 Zrotation Yrotation Xrotation
					JOINT LeftHand
					{
						OFFSET 3.483560 -0.000000 -0.000000 
						CHANNELS 3 Zrotation Yrotation Xrotation
						JOINT LeftHandIndex1
						{
							OFFSET 0.715260 -0.000000 -0.000000 
							CHANNELS 3 Zrotation Yrotation Xrotation
							End Site
							{
								OFFSET 0.000000 0.000000 0.000000 
							}
						}
					}
				}
			}
			JOINT RightArm
			{
				OFFSET -3.136600 1.374050 -0.404650 
				CHANNELS 3 Zrotation Yrotation Xrotation
				JOINT RightForeArm
				{
					OFFSET -5.241900 -0.000000 -0.000000 
					CHANNELS 3 Zrotation Yrotation Xrotation
					JOINT RightHand
					{
						OFFSET -3.444170 -0.000000 -0.000000 
						CHANNELS 3 Zrotation Yrotation Xrotation
						JOINT RightHandIndex1
						{
							OFFSET -0.622530 -0.000000 -0.000000 
							CHANNELS 3 Zrotation Yrotation Xrotation
							End Site
							{
								OFFSET 0.000000 0.000000 0.000000 
							}
						}
					}
				}
			}
		}
	}
}
MOTION
Frames: 7
Frame Time: 0.041667
9.077254 17.038692 32.566908 178.655273 -8.174882 -179.345645 -0.726911 2.426168 -21.969079 3.224839 13.914460 36.816104 -1.806619 8.720578 11.109237 0.648500 -5.151400 -14.341000 1.206361 -11.830443 -22.599490 -5.334889 -14.077798 40.818046 5.855012 -17.034222 -1.160137 -0.559300 4.790500 -13.311900 0.822825 -0.593810 -3.157329 -2.333455 -0.311991 3.637671 3.511723 8.233886 7.670060 1.714600 3.432000 13.585200 -0.011141 -39.179130 -27.176315 36.084462 -37.353673 -25.697136 6.406186 -2.792261 0.268113 -7.125000 0.000000 0.000000 -2.854214 38.149005 -31.173288 -33.383335 37.955809 -22.672073 -4.248406 2.623466 2.471570 7.125000 0.000000 0.000000 
9.078134 17.049685 32.566249 178.658824 -8.230578 -179.322479 -0.701623 2.389406 -21.920568 3.178050 13.868644 36.655885 -1.796535 8.726113 11.229883 0.640900 -5.121800 -14.256300 1.216988 -11.797242 -22.536457 -5.291012 -14.043290 40.668497 5.897103 -17.128987 -1.165039 -0.547500 4.740200 -13.169100 0.831801 -0.616346 -3.160369 -2.318714 -0.322263 3.605942 3.440948 8.429266 7.664278 1.680300 3.504500 13.578200 -0.844136 -39.227642 -27.041511 37.386306 -37.906465 -26.834306 6.335679 -2.764854 0.861581 -7.125000 0.000000 0.000000 -2.179940 38.471029 -31.558756 -34.447961 38.472881 -23.542753 -4.172351 2.585628 2.889555 7.125000 0.000000 0.000000 
9.078684 17.061008 32.566249 178.623301 -8.276747 -179.280984 -0.718679 2.362215 -21.896294 3.132648 13.830776 36.516368 -1.787348 8.728863 11.334332 0.630100 -5.079300 -14.134800 1.189135 -11.785464 -22.495508 -5.255570 -14.005753 40.523173 5.931398 -17.204677 -1.134309 -0.549300 4.747800 -13.190700 0.834814 -0.634536 -3.164647 -2.336368 -0.327345 3.583603 3.370385 8.594811 7.666314 1.624700 3.568800 13.593400 -1.545646 -39.282008 -26.933699 38.604238 -38.409840 -27.912270 6.219317 -2.736613 1.381961 -7.125000 0.000000 0.000000 -1.510907 38.652807 -31.737459 -35.553246 38.975181 -24.455897 -4.079480 2.585085 3.130918 7.125000 0.000000 0.000000 
9.078354 17.070462 32.568008 178.634898 -8.289295 -179.235193 -0.703780 2.363119 -21.892933 3.096360 13.790475 36.378805 -1.791068 8.760551 11.443535 0.623800 -5.054100 -14.062800 1.199881 -11.751466 -22.474418 -5.215523 -13.972316 40.380016 5.962225 -17.272756 -1.092231 -0.543100 4.721400 -13.115700 0.831300 -0.623401 -3.171067 -2.410303 -0.313595 3.533608 3.312682 8.693090 7.649096 1.566100 3.613200 13.569800 -2.011419 -39.346925 -26.864075 39.486202 -38.770846 -28.690768 6.158544 -2.681037 1.519863 -7.125000 0.000000 0.000000 -0.923647 38.746288 -31.866365 -36.561319 39.421129 -25.330348 -4.023892 2.548890 3.451365 7.125000 0.000000 0.000000 
9.078354 17.080027 32.569437 178.626881 -8.319411 -179.194297 -0.701721 2.346354 -21.879485 3.059158 13.754543 36.251396 -1.789727 8.778729 11.538973 0.616400 -5.024700 -13.978900 1.194769 -11.729590 -22.446036 -5.180027 -13.939512 40.246379 5.991834 -17.337650 -1.063086 -0.538800 4.702900 -13.063200 0.830292 -0.627817 -3.175378 -2.454821 -0.310036 3.500775 3.259390 8.807322 7.632282 1.522800 3.661300 13.551100 -2.533500 -39.399240 -26.804286 40.459185 -39.154929 -29.565228 6.083148 -2.634158 1.745888 -7.125000 0.000000 0.000000 -0.337843 38.872722 -32.022833 -37.616358 39.874911 -26.247109 -3.960334 2.514964 3.809438 7.125000 0.000000 0.000000 
9.078244 17.088821 32.571525 178.621386 -8.349113 -179.154279 -0.700682 2.328526 -21.872312 3.026199 13.723067 36.138496 -1.789860 8.797479 11.622650 0.610100 -4.999200 -13.906400 1.190312 -11.712391 -22.424410 -5.147446 -13.908628 40.122818 6.017662 -17.394017 -1.033832 -0.534600 4.685000 -13.012200 0.827934 -0.630627 -3.178874 -2.503863 -0.305758 3.470897 3.216133 8.898333 7.610457 1.487200 3.701200 13.524000 -2.979648 -39.455301 -26.778068 41.317101 -39.486777 -30.342688 6.013817 -2.588127 1.892186 -7.125000 0.000000 0.000000 0.199095 38.965056 -32.159687 -38.630609 40.296456 -27.145281 -3.903174 2.478930 4.210992 7.125000 0.000000 0.000000 
9.077914 17.096626 32.574274 178.619542 -8.378041 -179.115858 -0.698067 2.311019 -21.870396 2.997074 13.694845 36.036739 -1.792231 8.819422 11.699642 0.605600 -4.981200 -13.854900 1.189120 -11.699535 -22.410058 -5.117872 -13.880428 40.010224 6.040725 -17.444054 -1.004737 -0.530300 4.666400 -12.959400 0.825342 -0.633083 -3.181457 -2.551642 -0.301740 3.443759 3.180927 8.972643 7.585127 1.460400 3.734600 13.490300 -3.368877 -39.510716 -26.779730 42.070953 -39.772253 -31.031023 5.952854 -2.545518 1.994891 -7.125000 0.000000 0.000000 0.678639 39.037408 -32.291048 -39.581294 40.680116 -28.001234 -3.852586 2.440753 4.648969 7.125000 0.000000 0.000000 
